<?xml version="1.0" standalone="no"?>
<!DOCTYPE svg PUBLIC "-//W3C//DTD SVG 20010904//EN"
 "http://www.w3.org/TR/2001/REC-SVG-20010904/DTD/svg10.dtd">
<svg version="1.0" xmlns="http://www.w3.org/2000/svg"
 width="500.000000pt" height="500.000000pt" viewBox="0 0 500.000000 500.000000"
 preserveAspectRatio="xMidYMid meet">

<g transform="translate(0.000000,500.000000) scale(0.100000,-0.100000)"
fill="#000000" stroke="none">
<path d="M2237 4989 c-284 -25 -636 -132 -904 -275 -688 -368 -1160 -1025
-1294 -1805 -21 -118 -23 -167 -23 -409 0 -242 2 -291 23 -409 134 -780 606
-1437 1294 -1805 717 -383 1617 -383 2334 0 688 368 1160 1025 1294 1805 21
118 23 167 23 409 0 242 -2 291 -23 409 -178 1036 -962 1849 -1971 2046 -221
43 -510 56 -753 34z m342 -1137 c22 -22 33 -49 50 -127 13 -55 25 -109 28
-120 4 -12 15 25 28 93 29 150 40 162 145 162 68 0 79 -3 99 -24 12 -13 29
-46 37 -72 293 -964 524 -1748 524 -1781 0 -30 -7 -50 -24 -70 l-24 -28 -929
-3 c-636 -1 -936 1 -954 8 -31 13 -59 58 -59 96 0 31 533 1791 556 1835 7 15
21 29 29 33 21 8 149 8 170 0 27 -11 44 -59 57 -158 7 -53 15 -93 19 -88 3 4
12 54 19 112 11 92 16 108 41 132 24 25 35 28 94 28 60 0 69 -3 94 -28z
m-1425 -2297 c29 -71 60 -149 69 -172 l17 -43 -29 0 c-25 0 -31 6 -48 51 -10
28 -22 50 -26 50 -4 -1 -32 -1 -63 -1 l-55 0 -21 -50 c-18 -43 -24 -50 -49
-50 -26 0 -28 2 -19 23 9 20 100 250 121 305 6 16 16 22 30 20 17 -2 32 -29
73 -133z m293 101 c13 -15 23 -34 23 -42 0 -21 -37 -17 -60 6 -12 12 -33 20
-55 20 -33 0 -75 -27 -75 -48 0 -23 31 -42 85 -51 82 -15 109 -37 113 -91 4
-46 -12 -71 -60 -96 -58 -30 -150 -6 -178 46 -23 42 14 62 45 25 20 -24 57
-37 90 -31 40 8 58 27 53 58 -2 18 -12 25 -43 31 -81 16 -119 33 -138 59 -29
39 -15 94 33 126 49 34 133 28 167 -12z m277 5 c51 -48 51 -136 1 -178 -21
-18 -38 -23 -86 -23 l-59 0 0 -61 c0 -60 0 -60 -27 -57 l-28 3 -3 160 c-1 87
0 165 3 173 4 11 24 13 89 11 73 -4 88 -7 110 -28z m246 4 c0 -21 -5 -25 -30
-25 l-30 0 0 -125 0 -125 30 0 c25 0 30 -4 30 -25 l0 -26 -87 3 c-82 3 -88 5
-91 25 -3 18 2 22 30 25 l33 3 0 120 0 120 -32 3 c-24 2 -33 8 -33 21 0 28 9
31 97 31 82 0 83 0 83 -25z m231 -13 c50 -56 36 -138 -29 -171 l-23 -12 33
-41 c18 -22 41 -51 51 -64 l19 -24 -34 0 c-29 1 -40 10 -95 79 -35 43 -63 83
-63 90 0 6 17 11 42 11 47 0 78 22 78 55 0 39 -23 57 -78 63 l-51 4 -3 -148
-3 -149 -25 0 -25 0 -3 160 c-1 87 0 165 3 173 4 11 24 13 91 11 82 -4 87 -5
115 -37z m360 -81 c21 -63 40 -116 43 -118 2 -2 15 29 28 69 21 63 28 73 48
73 20 0 27 -10 48 -73 13 -40 26 -71 28 -69 3 2 22 55 43 118 35 105 40 114
64 117 15 2 27 0 27 -5 0 -4 -26 -84 -57 -176 -49 -143 -61 -167 -77 -165 -14
2 -26 23 -44 76 -14 39 -28 72 -31 72 -4 0 -18 -33 -32 -72 -19 -53 -31 -74
-45 -76 -17 -2 -27 20 -73 160 -30 90 -56 157 -58 151 -3 -9 -29 -13 -84 -13
l-79 0 0 -50 0 -50 80 0 c79 0 80 0 80 -25 0 -25 -1 -25 -80 -25 l-80 0 0 -50
0 -50 80 0 c79 0 80 0 80 -25 l0 -25 -105 0 -105 0 0 175 0 176 132 -3 131 -3
38 -114z m572 105 c42 -17 83 -66 98 -115 32 -107 -54 -221 -165 -221 -101 0
-176 77 -176 179 0 121 129 205 243 157z m323 -5 c66 -40 70 -128 7 -180 l-36
-30 47 -53 c25 -29 46 -56 46 -60 0 -5 -13 -8 -29 -8 -23 0 -39 14 -90 75 -73
89 -76 105 -23 105 70 0 102 51 58 95 -19 19 -35 25 -71 25 l-45 0 0 -150 0
-150 -25 0 -25 0 0 175 0 175 78 0 c58 0 85 -5 108 -19z m142 -133 l3 -148 80
0 c78 0 80 -1 77 -22 -3 -22 -8 -23 -110 -26 l-108 -3 0 169 c0 93 3 172 7
176 4 4 16 6 28 4 19 -3 20 -11 23 -150z m378 133 c65 -30 89 -72 89 -158 0
-85 -17 -116 -85 -150 -35 -18 -61 -23 -122 -23 l-78 0 0 175 0 175 78 0 c53
0 90 -6 118 -19z"/>
<path d="M2435 3780 c-4 -6 -14 -78 -22 -161 -18 -164 -32 -199 -79 -199 -43
0 -70 38 -78 111 -4 35 -12 103 -18 152 l-11 87 -58 0 c-33 0 -59 -2 -59 -4 0
-2 -122 -404 -270 -892 -205 -673 -267 -890 -258 -896 7 -4 110 -6 228 -3
l215 6 63 222 c34 122 86 310 116 417 30 107 91 319 136 470 83 281 101 320
145 320 43 0 62 -39 135 -290 65 -225 348 -1131 355 -1138 1 -1 100 -4 219 -7
163 -2 218 0 222 9 2 6 -115 408 -261 893 -146 485 -265 884 -265 887 0 3 -26
6 -58 6 l-59 0 -22 -147 c-26 -180 -45 -214 -106 -199 -36 9 -49 44 -75 196
-12 74 -27 143 -32 153 -6 12 -21 17 -53 17 -24 0 -47 -5 -50 -10z"/>
<path d="M2316 2663 c-9 -28 -176 -676 -176 -682 0 -7 727 -8 733 -1 2 3 -43
160 -102 350 l-106 345 -172 3 c-157 2 -172 1 -177 -15z"/>
<path d="M1067 1570 c-33 -78 -33 -80 13 -80 46 0 45 -4 15 80 l-13 35 -15
-35z"/>
<path d="M1580 1576 l0 -66 48 0 c55 0 82 20 82 61 0 43 -22 61 -78 67 l-52 5
0 -67z"/>
<path d="M3010 1627 c-34 -17 -70 -74 -70 -112 0 -38 36 -95 70 -112 63 -32
143 2 169 71 38 100 -73 202 -169 153z"/>
<path d="M3830 1515 l0 -128 58 6 c67 6 93 19 116 58 32 53 13 137 -37 168
-11 7 -47 16 -79 18 l-58 6 0 -128z"/>
</g>
</svg>
